<?xml version="1.0" encoding="UTF-8"?>
<svg width="210mm" height="297mm" version="1.1" viewBox="0 0 210 297" xmlns="http://www.w3.org/2000/svg" xmlns:cc="http://creativecommons.org/ns#" xmlns:dc="http://purl.org/dc/elements/1.1/" xmlns:rdf="http://www.w3.org/1999/02/22-rdf-syntax-ns#">
 <metadata>
  <rdf:RDF>
   <cc:Work rdf:about="">
    <dc:format>image/svg+xml</dc:format>
    <dc:type rdf:resource="http://purl.org/dc/dcmitype/StillImage"/>
    <dc:title/>
   </cc:Work>
  </rdf:RDF>
 </metadata>
 <path d="m106.36 19.737c-0.51374 7.12e-4 -1.0314 6e-3 -1.5541 0.01521-4.1817 0.07511-8.6888 0.42562-12.921 0.96398-4.2318 0.53836-8.1881 1.2645-11.944 2.2536-3.7561 0.98908-7.3116 2.2411-11.043 3.7435-3.731 1.5024-7.6372 3.2551-11.506 5.371-3.8687 2.1159-7.6997 4.5948-11.068 7.0362-3.3679 2.4414-6.2726 4.8454-9.5529 8.038-3.2803 3.1926-6.9361 7.1738-10.216 11.393-3.2803 4.2193-6.1848 8.6764-8.789 13.634-2.6042 4.958-4.9079 10.417-6.6982 15.713-1.7904 5.296-3.0674 10.429-3.9939 15.663-0.92649 5.2334-1.5023 10.567-1.3771 16.326 0.12521 5.7593 0.95143 11.944 1.9155 17.152 0.96405 5.2084 2.0658 9.4401 3.9563 14.536 1.8905 5.0957 4.5699 11.055 7.5998 16.426 3.0299 5.3712 6.4101 10.154 9.6278 14.123 3.2177 3.9689 6.2726 7.1238 9.628 10.254 3.3554 3.13 7.0112 6.235 10.892 8.9394 3.8812 2.7043 7.9876 5.0079 11.093 6.8108 3.105 1.8029 5.2084 3.1049 6.7608 4.7576 1.5525 1.6527 2.5541 3.6559 3.3053 6.811 0.75119 3.1551 1.252 7.4618 1.7528 11.769 1.5024-0.45072 3.0047-0.90144 4.2317-1.1894 1.227-0.28797 2.1785-0.41317 3.6308-0.68861 1.4523-0.27544 3.4054-0.70102 5.5714-0.98897 2.166-0.28796 4.5448-0.4382 6.8985-0.5634 2.3538-0.12521 4.6825-0.22545 6.9611-0.27553 2.2787-0.05 4.5072-0.05 6.9611 0.0125 2.454 0.0626 5.1332 0.18782 8.6638 0.0501 3.5307-0.13773 7.9127-0.53836 11.205-1.1894 3.2928-0.65104 5.4747-1.5436 7.2884-2.4244 1.8136-0.88077 3.216-1.7322 4.3678-2.6086 1.1518-0.87642 2.0532-1.7778 2.529-2.6667 0.47578-0.8889 0.52591-1.7653 0.66363-2.7043 0.13771-0.93903 0.36296-1.9406 0.67596-2.8295 0.31301-0.88895 0.71363-1.6652 1.4398-2.2912 0.72618-0.62604 1.778-1.1018 3.4557-1.9281 1.6777-0.82634 3.9813-2.0032 6.6105-3.468 2.6292-1.4649 5.5839-3.2177 8.2131-4.9831 2.6292-1.7653 4.9329-3.5431 7.2115-5.4837 2.2787-1.9406 4.5322-4.0439 6.7482-6.285 2.2161-2.2411 4.3946-4.6198 6.3102-6.8985 1.9156-2.2787 3.5682-4.4572 5.4462-7.124 1.878-2.6668 3.9697-5.8045 5.6532-8.8054s2.9355-5.8305 4.1374-8.7978c1.2019-2.9673 2.3538-6.072 3.2928-9.0268 0.93902-2.9548 1.6651-5.7592 2.3036-9.0144 0.63853-3.2552 1.1894-6.9611 1.4899-10.93 0.30049-3.9689 0.35067-8.2009 0.20043-12.157-0.15022-3.9562-0.50115-7.6394-0.96427-10.969-0.46313-3.3292-1.0389-6.3088-1.7275-9.176s-1.4899-5.6215-2.3663-8.2633c-0.87641-2.6418-1.8278-5.1708-2.9797-7.8126-1.1518-2.6418-2.4991-5.3862-3.7535-7.8952-1.2544-2.509-2.4064-4.7625-3.9338-7.1163-1.5274-2.3538-3.4304-4.8078-5.346-7.1616-1.9156-2.3538-3.8437-4.6073-6.3101-7.1113-2.4665-2.504-5.4711-5.2584-8.6387-7.9002-3.1676-2.6418-6.4979-5.1707-9.5278-7.2115-3.0299-2.0408-5.7592-3.5933-8.6264-5.0332-2.8671-1.4398-5.8718-2.7668-9.2647-4.0564-3.393-1.2897-7.174-2.5417-11.281-3.6059-4.1066-1.0642-8.5387-1.9407-12.683-2.479-3.6262-0.47108-7.0317-0.68335-10.628-0.67874zm-26.945 36.188c4.4561 5e-3 10.045 0.0824 13.398 0.15004 4.4705 0.0901 4.9659 0.16298 5.1912 1.2972 0.22525 1.1342 0.18041 3.3296 0.22804 4.6047 0.0477 1.2751 0.18768 1.6298 0.63805 1.8973 0.45039 0.2675 1.2109 0.44778 2.3246 0.85984 1.1137 0.41207 2.5806 1.0558 4.1884 1.8596 1.6078 0.80373 3.3565 1.7674 4.8218 2.7653 1.4653 0.9979 2.647 2.0299 3.3968 2.6618 0.74979 0.63181 1.056 0.85484 1.8152 0.64096 0.75924-0.21389 1.9483-0.88149 2.7918-1.4356 0.84345-0.5541 1.3412-0.99467 1.9615-1.1336 0.62037-0.13896 1.3632 0.0236 1.937 0.41568 0.57376 0.39206 0.97829 1.0136 2.8407 4.3592 1.8624 3.3457 5.1826 9.4154 7.0359 12.823 1.8533 3.4076 2.2396 4.153 2.3607 4.8086 0.12108 0.65564-0.0228 1.2216-0.46798 1.7774-0.44505 0.5558-1.191 1.1014-1.9896 1.514-0.79853 0.41266-1.6497 0.69237-2.5008 0.97198l0.0922 3.2405 27.063 0.19728c1.4498 0.0106 2.715 0.63964 3.7665 1.1046 1.0515 0.46493 1.9697 1.0355 2.7547 1.7028 0.78504 0.6674 1.4369 1.4316 2.1146 2.3464 0.67773 0.9148 1.3814 1.9801 1.8285 3.0002 0.44711 1.02 0.6377 1.9948 0.76821 10.72 0.13053 8.7253 0.20097 25.218 0.19884 33.89-3e-3 8.6717-0.0767 9.5567-0.16455 10.411-0.0878 0.85395-0.18869 1.6769-0.43632 2.6408s-0.64197 2.0687-1.1776 3.1066c-0.53567 1.0379-1.2126 2.0089-1.991 2.882-0.77841 0.87309-1.6582 1.6484-2.6344 2.2108-0.97625 0.56237-2.049 0.91189-2.8333 1.1033-0.78432 0.19138-1.2804 0.22469-1.7763 0.25795l-0.15324-13.705c0.21336-0.2027 0.42678-0.40544 0.76007-0.70502 0.33328-0.29956 0.78649-0.69597 1.1691-1.137 0.38259-0.44097 0.6945-0.92658 0.94918-1.4744 0.25467-0.54778 0.45206-1.1578 0.5618-1.9673 0.10974-0.80958 0.13186-1.8186 0.0866-2.6024-0.0453-0.78368-0.15808-1.3419-0.30166-1.918-0.1436-0.57607-0.31804-1.17-0.62994-1.7203-0.31188-0.55024-0.76121-1.0568-1.1846-1.4128-0.42339-0.35597-0.82094-0.5614-1.2184-0.76674l9e-3 -14.289c0.39078-0.29049 0.78153-0.58098 1.1816-0.95994 0.40003-0.37895 0.80934-0.84646 1.1393-1.4028 0.32997-0.55631 0.58067-1.2015 0.721-1.918 0.14034-0.71648 0.17027-1.5042 0.0853-2.3146-0.085-0.81043-0.28498-1.6435-0.57823-2.415-0.29322-0.7715-0.67971-1.4814-1.2921-2.1525-0.61238-0.67107-1.4508-1.3032-2.321-1.7187-0.87024-0.41547-1.7723-0.61416-2.622-0.66652-0.84969-0.0524-1.647 0.0417-2.3872 0.27305-0.74026 0.23141-1.4234 0.60025-2.1071 1.0488-0.68363 0.44855-1.3677 0.9768-1.9376 1.7313-0.56988 0.75451-1.0256 1.7352-1.2908 2.6725-0.26521 0.9373-0.33993 1.8311-0.24183 2.6947 0.0981 0.86361 0.36893 1.6969 0.75977 2.4246s0.90168 1.3496 1.4042 1.8343c0.50254 0.48466 0.99676 0.83199 1.4915 1.0687 0.49474 0.23672 0.98989 0.36281 1.4851 0.4889l0.12752 13.519c-0.34594 0.15786-0.69183 0.31568-1.0954 0.49543s-0.87227 0.38468-1.2725 0.63806c-0.40023 0.25337-0.74685 0.56171-1.0805 0.93654-0.3336 0.37482-0.65418 0.81611-0.88655 1.3242-0.23238 0.50807-0.37643 1.0828-0.52056 1.6577l-8.1539 0.0179c-0.20194-0.3904-0.40742-0.78767-0.71317-1.3212-0.30572-0.53344-0.7188-1.217-1.2915-1.8524-0.5727-0.63549-1.3049-1.2229-2.2153-1.5722-0.91038-0.34923-1.9988-0.46023-3.0616-0.36745-1.0628 0.0928-2.0998 0.38932-2.9429 0.86376-0.84314 0.47443-1.4924 1.1268-2.0886 1.8458-0.59627 0.71897-1.1397 1.5045-1.4129 2.2514-0.27325 0.74695-0.27627 1.4552-0.22674 2.2876 0.0495 0.83241 0.15161 1.789 0.29907 2.4979 0.14744 0.7089 0.34024 1.1701 0.78054 1.7209 0.44029 0.55077 1.1185 1.1822 1.9265 1.739 0.80802 0.55679 1.7268 1.0212 2.8504 1.1853 1.1236 0.1642 2.4521 0.0283 3.6313-0.37385 1.1792-0.40217 2.2091-1.0705 2.9286-1.6252 0.71951-0.55463 1.1287-0.99557 1.5378-1.4365l8.604 0.24966c0.33465 0.4087 0.6694 0.81738 1.0927 1.2087 0.42328 0.39136 0.93515 0.7655 1.4386 1.0244 0.50352 0.25889 0.99856 0.40263 1.4937 0.54641l0.15338 13.705c-14.426 9e-3 -28.852 0.0168-37.549 0.0709-8.6971 0.0541-11.665 0.1541-13.962 0.16296-2.2975 9e-3 -3.9248-0.0733-5.476-0.3679-1.5512-0.29466-3.0263-0.80187-4.2817-1.4896s-2.2908-1.5561-3.1814-2.6054c-0.89068-1.0493-1.6365-2.2795-2.1072-3.4647-0.47068-1.1852-0.66607-2.3253-0.72666-4.2411-0.0606-1.9159 0.0135-4.6075 0.0877-7.299-4.1152 0.0288-8.2302 0.0575-10.553 0.0618-2.3232 4e-3 -2.6861-0.0164-2.9503-0.36238-0.26415-0.34608-0.27878-1.0189-0.21345-1.7977 0.0653-0.7788 0.0249-1.6635 0.0806-2.2741 0.0558-0.61062 0.0217-0.94717-0.41961-1.2413-0.44134-0.29408-1.2901-0.54563-2.3861-0.96645s-2.4391-1.011-3.826-1.7075c-1.3869-0.69654-2.8177-1.4995-4.2475-2.506-1.4299-1.0066-2.8587-2.2167-3.6879-2.9108-0.82921-0.69415-1.0587-0.87226-1.8748-0.504-0.8161 0.36826-2.3249 1.2829-3.4512 1.7207-1.1262 0.4378-1.9697 0.59525-2.5597 0.25462-0.52067-0.30062-0.79517-0.3934-2.9577-3.9351-2.1626-3.5417-6.1699-10.376-8.3138-14.157-2.1439-3.7808-2.424-4.5079-2.3416-5.1361 0.08237-0.62827 0.52722-1.1574 1.2729-1.6234 0.7457-0.466 1.7922-0.86875 2.5816-1.2106 0.7894-0.34188 1.3218-0.62295 1.6416-0.86945 0.31976-0.24649 0.42694-0.45845 0.41148-0.97197-0.0155-0.51353-0.15371-1.3285-0.29921-2.4889-0.14549-1.1604-0.29836-2.6661-0.38868-4.3043-0.09031-1.6382-0.11804-3.409-0.02236-5.0641 0.09567-1.6551 0.31478-3.1945 0.39913-4.2742 0.08434-1.0797 0.03399-1.6997-0.78621-2.4115-0.82021-0.71182-2.4103-1.5155-3.3637-2.157-0.95339-0.64153-1.27-1.1208-1.321-1.6257-0.05098-0.50488 0.16384-1.0352 2.2866-4.6735 2.1228-3.6383 6.1533-10.384 8.3916-14.12 2.2383-3.7352 2.684-4.4593 3.1194-4.8204 0.43541-0.36111 0.8604-0.35933 1.7877 0.17589 0.92727 0.53523 2.3569 1.6037 3.2754 2.1123 0.91853 0.50857 1.326 0.45726 2.1338-0.0527 0.80782-0.50999 2.0073-1.4716 3.2019-2.3907 1.1946-0.91907 2.3669-1.7816 3.9732-2.6777 1.6063-0.89609 3.6466-1.8256 4.9768-2.3422 1.3302-0.5166 1.9503-0.62019 2.3495-0.80437 0.39915-0.18418 0.57736-0.44898 0.62614-1.4934 0.0488-1.0444-0.0319-2.8685 0.0175-4.0724 0.0495-1.2038 0.22907-1.7874 0.53189-2.2022 0.30282-0.41483 0.72874-0.66078 5.1645-0.73015 1.1089-0.0174 2.4685-0.0236 3.9538-0.0219zm3.7871 100.58c4.4193-5e-3 8.8387-0.0105 11.252-0.10066 2.4137-0.0902 2.8217-0.26558 3.0176-0.52143 0.19587-0.25584 0.17965-0.59225 0.15745-1.6016s-0.0504-2.6917-0.0786-4.3739c0.60291-0.20987 1.2217-0.42522 2.2779-0.80741 1.0562-0.38221 2.5812-0.94227 4.0978-1.5732 1.5166-0.63087 3.0246-1.3326 4.5071-2.2558 1.4824-0.92318 2.9393-2.0678 4.0321-2.9749 1.0929-0.90715 1.8218-1.5768 2.5506-2.2465 1.4467 1.1926 2.9041 2.3939 3.8786 3.0577 0.97453 0.66384 1.4874 0.80782 1.9129 0.68571 0.42543-0.12212 0.76358-0.51026 1.1017-0.89834 3.9952-6.7288 7.9904-13.457 10.034-17.105 2.0431-3.6476 2.1342-4.2136 2.0388-4.6744-0.0953-0.46077-0.37719-0.81617-1.331-1.3515s-2.5797-1.2506-4.2055-1.9659c0.23681-1.5394 0.47361-3.0787 0.68351-4.5298 0.2099-1.451 0.39279-2.8135 0.46986-4.2562 0.0771-1.4427 0.0482-2.9656 0.0105-4.4796-0.0377-1.514-0.0842-3.0194-0.13086-4.5246l-8.885 0.0552s0.0928 1.7032 0.13916 2.5547c0.0155 2.2288 0.0309 4.4575 0.0464 6.686-0.33573 2.3775-0.67154 4.7548-1.0074 7.1321-0.60976 2.0508-1.2196 4.1014-1.8295 6.152-1.0098 1.8988-2.0195 3.7976-3.0294 5.6962-1.635 1.7208-3.3201 3.4412-4.9803 5.1617-2.1102 1.5936-4.2204 3.187-6.3308 4.7804-2.1075 0.96756-4.2152 1.935-6.3228 2.9024-2.4324 0.81592-4.8647 1.6318-7.2972 2.4475-1.2526 0.1449-2.5052 0.28966-3.7579 0.43441-0.57575-0.0274-1.1517-0.0548-1.7275-0.0825-0.40046-0.0267-1.2015-0.0803-1.2015-0.0803zm0.0924-12.657s-0.21745-19.232-0.32623-28.848c-0.0926-1.7281-0.12571-3.5383 0.27716-5.2215 0.32332-1.3508 0.87892-2.4918 1.7884-3.5417 1.09-1.2583 2.2389-2.3782 3.6206-3.3067 1.5432-1.037 3.0936-1.6884 4.8927-2.1571 1.5768-0.41081 3.4066-0.46708 5.0344-0.53524 7.3374-0.0934 22.012-0.17461 22.012-0.17461-0.52224-0.98958-1.031-1.9535-1.6144-3.1973-0.5834-1.2437-1.2144-2.716-1.9252-4.171-0.71081-1.455-1.5014-2.8926-2.4339-4.26-0.93252-1.3674-2.0071-2.6646-3.0817-3.9352-1.0746-1.2706-2.1493-2.5146-3.2954-3.6173-1.1461-1.1028-2.3636-2.0642-3.6522-2.9904-1.2886-0.9263-2.648-1.8175-4.3352-2.6747-1.6873-0.85719-3.7022-1.6804-6.0547-2.2484-2.3525-0.56792-5.0425-0.88044-7.5476-0.96209-2.5051-0.0816-4.8252 0.0675-7.0221 0.38562-2.197 0.31807-4.2706 0.80502-6.2566 1.4516-1.9859 0.64656-3.8839 1.4527-5.6853 2.4188-1.8014 0.96607-3.506 2.0919-5.1228 3.3687s-3.1456 2.7043-4.6138 4.4243c-1.4682 1.72-2.8757 3.7325-4.0975 5.8077-1.2219 2.0752-2.265 4.2275-3.0067 6.6163-0.74168 2.3888-1.1959 5.0427-1.4548 7.5913-0.2589 2.5486-0.32254 4.9916-0.05866 7.4451 0.26385 2.4535 0.85532 4.9172 1.4745 7.089 0.61919 2.1717 1.2662 4.0512 2.2506 5.8555 0.98439 1.8043 2.3061 3.5333 3.6834 5.2022 1.3773 1.6689 2.81 3.2776 4.6873 4.9008 1.8773 1.6232 4.199 3.2608 6.4534 4.5351 2.2544 1.2743 4.4415 2.1851 6.6672 2.8645 2.2257 0.67943 4.4899 1.1274 5.9536 1.4029 1.4637 0.27552 2.1267 0.37861 2.7899 0.48164zm56.877 92.284c-0.0825 3e-3 -0.1727 0.0147-0.27131 0.035-0.78878 0.16272-2.1159 0.88872-3.6308 1.4646s-3.2176 1.0016-5.9845 1.3021c-2.7669 0.30051-6.598 0.47588-10.655 0.57605-4.0565 0.10015-8.3382 0.12514-13.158 0.15019-4.8203 0.0251-10.179 0.05-14.586 0.27537s-7.8626 0.65105-10.617 1.4398c-2.7545 0.78876-4.8077 1.9406-6.5104 3.3804-1.7028 1.4398-3.0548 3.1676-3.7309 4.7828-0.6761 1.6151-0.67616 3.1175-0.48831 3.8937 0.18783 0.77622 0.56348 0.82623 0.91402 0.73856 0.35052-0.0876 0.69284-0.32471 1.4982-0.73201 0.80534-0.40731 2.1075-1.0082 3.5348-1.4715 1.4273-0.46326 2.9798-0.78872 5.4462-0.9014 2.4665-0.11267 5.8467-0.0126 9.3899 0.0249 3.5432 0.0376 7.2492 0.0126 10.993 0.0126 3.7435 0 7.5245 0.0251 11.105-0.10009s6.961-0.40069 9.753-0.60101c2.792-0.20033 4.9955-0.32547 7.1489-0.8889 2.1534-0.5634 4.2568-1.565 5.7717-2.5916 1.5149-1.0266 2.4414-2.0783 3.1425-3.1425 0.70113-1.0642 1.177-2.141 1.4649-3.3053 0.28797-1.1644 0.38809-2.4163 0.31301-3.2426-0.0657-0.72303-0.26562-1.1202-0.84301-1.0992zm-6.0456 24.293c-0.18429 2e-3 -0.39488 0.0214-0.63589 0.056-0.96406 0.1377-2.4164 0.51323-4.6449 0.78868-2.2286 0.27544-5.2333 0.45081-8.4259 0.58853-3.1926 0.13772-6.5729 0.23781-10.554 0.33798-3.9814 0.10016-8.5637 0.20035-12.407 0.30052-3.8437 0.10015-6.9487 0.20033-9.8033 0.5008-2.8546 0.30046-5.4586 0.80122-7.4869 1.5274-2.0283 0.72618-3.4807 1.6777-4.1443 2.3414-0.66355 0.66362-0.53827 1.0392-0.05 1.5525 0.48831 0.51332 1.3396 1.1644 2.3412 1.8655 1.0016 0.70113 2.1535 1.4523 3.6058 2.1534 1.4524 0.70113 3.2051 1.3521 5.0706 1.903 1.8655 0.55087 3.8435 1.0016 6.1848 1.3897 2.3413 0.38811 5.0455 0.71362 7.85 0.8263 2.8045 0.11267 5.7091 0.0125 8.3383-0.2003 2.6292-0.21284 4.983-0.53834 7.5747-1.1393 2.5917-0.60097 5.4212-1.4773 7.775-2.4038 2.3538-0.92649 4.2317-1.9031 5.684-2.9798 1.4523-1.0767 2.4789-2.2535 3.2677-3.3553 0.78877-1.1018 1.3397-2.1284 1.5901-3.1049 0.2504-0.97656 0.20028-1.9031-0.0626-2.4164-0.19717-0.38502-0.51399-0.5376-1.0668-0.53174z" fill="#fff" fill-opacity=".9866"/>
</svg>
